<svg version="1" xmlns="http://www.w3.org/2000/svg" width="1365.333" height="1365.333" viewBox="0 0 1024.000000 1024.000000"><path d="M411 184.5V204h202v-39H411v19.5zM288.2 225.5l.3 19.5H408c.6 0 1-7.2 1-19.5V206H288l.2 19.5zM615 225.5V245h121v-39H615v19.5zM491.8 286.7l-.3 40.8-40.7.3-40.8.2v40h39.8c29.6 0 40.1.3 41 1.2.9.9 1.2 20.5 1.2 81.9 0 74.6-.1 80.8-1.7 81.1-.9.2-19.3.2-41 0L410 532v-81.4c0-73.3-.2-81.4-1.6-82-.9-.3-9.8-.6-19.9-.6-14 0-18.5.3-19.4 1.3-.8 1-1 24.2-.8 82.3l.2 80.9 20.2.3 20.3.2.2 20.3.3 20.2 40.8.3 40.7.2v163l-61.2.2-61.3.3-.3 19.9c-.2 15.3.1 20.1 1 20.8.7.4 27.9.8 60.3.8h60.2c1 0 1.3 9.2 1.5 40.7l.3 40.8h41l.3-40.8c.2-31.5.5-40.7 1.5-40.7h39.6c27.4 0 38.7-.3 39.7-1.1 1.1-.9 1.4-5.3 1.4-20.5V738h19.9c17.2 0 20-.2 20.5-1.6.3-.9.6-37.4.6-81.3 0-60.7-.3-80-1.2-80.9-.9-.9-6.9-1.2-21-1.2H614l-.2-20.3-.3-20.2-39-.2c-21.4-.2-39.8-.3-40.7-.3-1.7 0-1.8-4.5-1.8-80.9 0-67.5.2-81 1.4-82 1-.8 17.4-1.1 60.2-1.1h60.2c.9 0 1.2-4.7 1.2-20v-20l-61.2-.2-61.3-.3-.3-40.8-.2-40.7h-40l-.2 40.7zM614 655v82l-39.6.2c-21.7.2-40.2-.1-41-.5-1.2-.7-1.4-12.7-1.4-81.7 0-63.7.3-80.9 1.3-81.3.6-.3 19.1-.6 41-.6l39.7-.1v82zM247 266.5V286h39v-39h-39v19.5zM738 266.5V286h39v-39h-39v19.5zM206.2 307.6l.3 19.6 19-.2c10.4 0 19-.2 19.2-.3.1-.2.3-8.8.3-19.2l.2-19-19.6-.3-19.6-.2.2 19.6zM779 307.5V327h39v-39h-39v19.5zM165 390.2v61.3l19.1-.2c10.6-.1 19.6-.6 20-1 .5-.5.6-27.8.2-61.1l-.6-60.2H165v61.2zM820 389.5V450h39V329h-39v60.5zM124.4 451.9c-.2.2-.4 45.8-.4 101.3V654l20.3-.2 20.2-.3v-201l-19.8-.5c-10.9-.3-20.1-.3-20.3-.1zM879.8 451.8l-18.8.2v202h39V553.1c0-55.6-.3-101.1-.7-101.3-.5-.2-9.2-.2-19.5 0zM165 715.5V777h41v-60.3c0-45.6-.3-60.6-1.2-61.5-.9-.9-6.8-1.2-20.5-1.2H165v61.5zM820 716.5V777h39V656h-39v60.5zM206.6 777.7c-.3.4-.6 9.6-.6 20.5V818l20.3-.2 20.2-.3.3-18.8c.2-13.6 0-19.3-.9-20.3-1-1.2-4.7-1.4-20-1.4-10.3.1-19 .4-19.3.7zM797.2 778.8l-19.2.2.2 19.3.3 19.2 19.8.3 19.7.2v-19.4c0-10.7-.3-19.6-.7-19.8-.5-.2-9.5-.2-20.1 0zM247 838.5V859h41v-19.3c0-13.7-.3-19.6-1.2-20.5-.9-.9-6.8-1.2-20.5-1.2H247v20.5zM737.7 819.7c-.4.3-.7 9.3-.7 20V859h40v-40h-19.3c-10.7 0-19.7.3-20 .7zM288.7 859.7c-.4.3-.7 9.6-.7 20.5V900h122l-.2-20.3-.3-20.2-60.1-.3c-33-.1-60.4.1-60.7.5zM614.3 861.4c-.4.8-.7 9.8-.5 20l.3 18.6H736v-40h-60.5c-51.2 0-60.5.2-61.2 1.4zM411 920.5V941h202v-41H411v20.5z"/></svg>